<svg width="139" height="64" viewBox="0 0 139 64" fill="none" xmlns="http://www.w3.org/2000/svg">
<path d="M37.91 39.7969C36.9196 39.9577 36.1586 39.8568 35.6269 39.494C35.0952 39.1312 34.7919 38.7194 34.7171 38.2588C34.661 37.9133 34.7351 37.6413 34.9392 37.4427C35.1166 37.2247 35.3549 37.0915 35.6544 37.0429C35.9538 36.9942 36.1723 37.0297 36.3099 37.1492C36.4437 37.2456 36.5238 37.3745 36.5499 37.5357C36.5873 37.766 36.5214 37.9422 36.3521 38.0642C36.1828 38.1863 36.006 38.2623 35.8218 38.2922C35.6606 38.3184 35.5435 38.3255 35.4707 38.3137C35.3748 38.3057 35.302 38.2938 35.2522 38.2783C35.3195 38.6929 35.5866 39.0277 36.0536 39.2828C36.4937 39.5187 37.0478 39.5824 37.7157 39.4739C38.66 39.3205 39.5653 38.8544 40.4316 38.0755C41.2942 37.2735 42.0999 36.339 42.8485 35.2718C43.6164 34.1779 44.3364 33.08 45.0085 31.978C45.6805 30.8761 46.2963 29.9369 46.8558 29.1605C47.6467 28.0629 48.4647 26.9136 49.3098 25.7126C50.1549 24.5116 51.0536 23.3492 52.0057 22.2254C52.9809 21.0978 54.0247 20.101 55.1369 19.2348C56.2453 18.3457 57.4507 17.689 58.7529 17.2648C59.0678 17.1663 59.2558 17.1595 59.3168 17.2441C59.3971 17.302 59.3489 17.3689 59.1721 17.4449C57.9428 17.8809 56.8259 18.4996 55.8213 19.301C54.8361 20.0756 53.8941 21.0441 52.9955 22.2065C52.1162 23.3421 51.2225 24.681 50.3147 26.2231C49.4261 27.7385 48.4637 29.4549 47.4277 31.3724C46.9753 32.226 46.4327 33.106 45.7998 34.0125C45.1669 34.919 44.4441 35.781 43.6313 36.5985C42.8185 37.416 41.939 38.1144 40.993 38.6935C40.0431 39.2496 39.0155 39.6174 37.91 39.7969ZM48.9652 38.0017C47.2147 38.286 46.261 37.9444 46.1039 36.9771C46.0104 36.4013 46.1491 35.7996 46.52 35.1721C46.8871 34.5215 47.3884 33.8964 48.0238 33.2968C48.6823 32.6934 49.3806 32.19 50.1188 31.7864C50.857 31.3829 51.5505 31.1403 52.1991 31.0586C52.3373 31.0362 52.4387 31.0788 52.5035 31.1864C52.5645 31.2711 52.4799 31.3321 52.2496 31.3695C51.6507 31.4668 51.0053 31.7134 50.3131 32.1095C49.6173 32.4825 48.9594 32.9439 48.3395 33.4937C47.7426 34.0398 47.2684 34.6132 46.9168 35.214C46.5653 35.8148 46.4325 36.38 46.5185 36.9098C46.5821 37.3013 46.7997 37.5496 47.1713 37.6548C47.543 37.7599 47.9707 37.7732 48.4543 37.6946C49.1453 37.5824 49.8178 37.2841 50.472 36.7997C51.1261 36.3152 51.7002 35.7019 52.1943 34.9598C52.7115 34.2139 53.087 33.3965 53.3208 32.5075C53.5547 31.6185 53.5987 30.7249 53.4528 29.8267C53.3668 29.297 53.1479 28.8952 52.7961 28.6214C52.4674 28.3438 52.0382 28.248 51.5084 28.3341C50.9787 28.4201 50.5601 28.5353 50.2526 28.6798C49.9451 28.8243 49.8008 28.9541 49.8195 29.0693C49.8382 29.1845 49.9088 29.2557 50.0315 29.2831C50.1771 29.3067 50.4227 29.2905 50.7682 29.2344C51.4361 29.1259 52.1202 28.8257 52.8204 28.3338C53.5436 27.8381 54.1983 27.2117 54.7846 26.4546C55.3938 25.6938 55.8518 24.8748 56.1585 23.9977C56.4882 23.1167 56.582 22.2387 56.4399 21.3635C56.3464 20.7877 56.0917 20.2381 55.6758 19.7147C55.2561 19.1682 54.5884 18.7684 53.6726 18.5152C52.7531 18.239 51.4873 18.2318 49.875 18.4936C48.5392 18.7106 47.2868 19.1503 46.1179 19.8129C44.9683 20.4487 43.9217 21.2097 42.9782 22.0957C42.0577 22.978 41.2599 23.8876 40.5847 24.8246C39.9325 25.7579 39.4493 26.6401 39.1352 27.4712C38.8172 28.2793 38.6994 28.9366 38.7817 29.4433C38.8453 29.8349 39.0452 30.1925 39.3814 30.5161C39.7139 30.8167 40.2717 30.9034 41.0547 30.7762C41.8148 30.6528 42.6065 30.2879 43.4299 29.6814C44.2727 29.0481 45.045 28.2726 45.747 27.3549C46.4683 26.4104 47.0345 25.3847 47.4458 24.2778C47.8763 23.1441 48.0594 22.0152 47.995 20.891C47.9962 20.6071 48.0447 20.4692 48.1406 20.4773C48.2364 20.4854 48.3127 20.5912 48.3694 20.7947C48.6105 21.843 48.5638 22.938 48.2291 24.0797C47.9138 25.1947 47.4011 26.2589 46.691 27.2725C45.9772 28.2631 45.1432 29.0958 44.1891 29.7708C43.235 30.4458 42.2512 30.8656 41.2378 31.0302C40.3626 31.1723 39.6915 31.1158 39.2246 30.8607C38.7807 30.6018 38.4952 30.0808 38.368 29.2978C38.2259 28.4226 38.4162 27.4106 38.9388 26.262C39.4615 25.1134 40.2468 23.9812 41.2948 22.8655C42.3622 21.7229 43.6207 20.7385 45.0703 19.9121C46.5392 19.059 48.1488 18.4903 49.8993 18.206C51.6727 17.9181 53.1132 17.9087 54.2206 18.178C55.3512 18.4436 56.2047 18.896 56.7813 19.5351C57.3809 20.1706 57.7499 20.9144 57.8882 21.7666C58.0378 22.6878 57.8902 23.5983 57.4453 24.4979C57.0197 25.3707 56.4179 26.1776 55.64 26.9185C54.885 27.6557 54.0865 28.27 53.2444 28.7613C52.4215 29.2259 51.6992 29.5087 51.0773 29.6097C50.4094 29.7181 49.9279 29.7372 49.6328 29.6669C49.3608 29.5929 49.2098 29.4638 49.1799 29.2795C49.1425 29.0492 49.341 28.816 49.7755 28.58C50.2329 28.3403 50.7841 28.168 51.429 28.0633C51.9127 27.9848 52.4132 28.0099 52.9305 28.1386C53.4478 28.2673 53.8992 28.5723 54.2846 29.0534C54.6931 29.5307 54.974 30.2416 55.1273 31.1859C55.2395 31.8768 55.1329 32.6033 54.8075 33.3653C54.5014 34.1006 54.0478 34.8007 53.4466 35.4656C52.8417 36.1075 52.1508 36.657 51.374 37.1141C50.5973 37.5712 49.7943 37.8671 48.9652 38.0017ZM66.6813 13.2825C66.9421 13.2874 67.2568 13.2599 67.6253 13.2001C68.0168 13.1365 68.324 13.063 68.5469 12.9795L59.2452 31.6873C58.9665 32.2999 58.6936 32.8761 58.4267 33.4159C58.1598 33.9556 57.9526 34.4266 57.8051 34.8288C57.6309 35.2116 57.5606 35.5067 57.5943 35.714C57.6205 35.8752 57.7083 35.9792 57.8577 36.0258C57.9841 36.0762 58.1624 36.0827 58.3927 36.0453C58.9224 35.9593 59.4798 35.6797 60.0649 35.2064C60.6462 34.7102 61.201 34.1237 61.7294 33.4469C62.2808 32.7664 62.7764 32.1067 63.2164 31.468C63.6794 30.8254 64.0441 30.3053 64.3104 29.9074L64.5859 30.0754C64.3389 30.4465 63.9972 30.9629 63.561 31.6248C63.1248 32.2866 62.6098 32.973 62.0161 33.684C61.4417 34.3683 60.8196 34.9775 60.1499 35.5118C59.5033 36.0423 58.8344 36.3636 58.1435 36.4758C57.775 36.5357 57.4472 36.4825 57.1602 36.3164C56.8502 36.154 56.6634 35.877 56.5998 35.4855C56.5587 35.2321 56.5984 34.8947 56.7191 34.4732C56.8398 34.0518 57.0046 33.6113 57.2137 33.1519C57.396 32.6731 57.5858 32.2405 57.783 31.8538C57.9535 31.4479 58.0928 31.1416 58.2011 30.9349L66.6813 13.2825ZM69.6447 25.2471C70.7963 25.0601 71.4619 25.5194 71.6414 26.6249C71.7798 27.4771 71.7261 28.3841 71.4805 29.3459C71.231 30.2847 70.8322 31.1768 70.284 32.0223C69.732 32.8447 69.1019 33.5498 68.3936 34.1376C67.6816 34.7024 66.9225 35.0502 66.1164 35.1811C65.4946 35.2821 64.952 35.2166 64.4888 34.9845C63.9989 34.7331 63.6959 34.2504 63.58 33.5364C63.4715 32.8685 63.5476 32.0997 63.8083 31.23C64.0652 30.3373 64.4677 29.4682 65.016 28.6227C65.5872 27.7735 66.2597 27.0379 67.0333 26.4158C67.83 25.7901 68.7004 25.4005 69.6447 25.2471ZM70.1033 25.6691C69.7118 25.7327 69.2792 25.9802 68.8056 26.4117C68.3319 26.8432 67.8636 27.3802 67.4006 28.0227C66.9376 28.6653 66.5166 29.3482 66.1377 30.0717C65.7781 30.7683 65.4971 31.4404 65.295 32.0878C65.1158 32.7315 65.0599 33.2606 65.1272 33.6752C65.202 34.1358 65.3811 34.4377 65.6643 34.5808C65.9439 34.7009 66.2449 34.7348 66.5673 34.6824C67.097 34.5964 67.6603 34.2804 68.2572 33.7343C68.8503 33.1652 69.4017 32.4847 69.9113 31.6928C70.421 30.9008 70.8099 30.0931 71.078 29.2694C71.3654 28.419 71.4567 27.6714 71.352 27.0265C71.2548 26.4277 71.0857 26.0415 70.8447 25.8678C70.6038 25.6942 70.3567 25.628 70.1033 25.6691ZM71.303 29.1265C71.4182 29.1078 71.4717 29.1464 71.4636 29.2423C71.4748 29.3114 71.4229 29.3553 71.3077 29.374C71.2156 29.3889 71.098 29.538 70.9549 29.8213C70.831 30.0778 70.7206 30.3439 70.6236 30.6197C70.5265 30.8955 70.4798 31.0449 70.4836 31.068C70.5696 31.5977 70.8084 31.8308 71.1999 31.7672C71.5684 31.7073 71.955 31.4673 72.3595 31.047C72.787 30.623 73.1841 30.1567 73.5506 29.648C73.9365 29.1126 74.2395 28.6497 74.4598 28.2593L74.7755 28.4563C74.5321 28.8504 74.2194 29.3266 73.8374 29.8851C73.4515 30.4205 73.0352 30.9136 72.5883 31.3644C72.1377 31.7922 71.6936 32.0416 71.256 32.1127C70.8875 32.1725 70.6211 32.133 70.4567 31.9942C70.2923 31.8555 70.1765 31.5788 70.1092 31.1642C70.0194 30.6115 70.1326 30.1439 70.4488 29.7616C70.7879 29.3756 71.0727 29.1639 71.303 29.1265ZM74.2772 34.3524C73.4711 34.4833 72.8364 34.4327 72.3732 34.2006C71.91 33.9685 71.6373 33.5991 71.555 33.0924C71.4952 32.7239 71.5695 32.3809 71.778 32.0634C71.9597 31.7265 72.1986 31.4513 72.4949 31.2378C72.7874 31.0012 73.0258 30.8679 73.2101 30.838C73.4634 30.7968 73.6455 30.8264 73.7563 30.9266C73.8404 31.0075 73.8918 31.1055 73.9105 31.2206C73.9404 31.4049 73.861 31.5714 73.6725 31.7203C73.4608 31.8728 73.2859 31.9603 73.1477 31.9828C72.9865 32.0089 72.8409 31.9853 72.7107 31.9119C72.5538 31.8192 72.4754 31.7728 72.4754 31.7728C72.364 31.8145 72.2233 31.9674 72.0535 32.2314C71.8836 32.4953 71.8211 32.7655 71.8659 33.0419C71.9108 33.3183 72.1035 33.5588 72.4441 33.7636C72.7846 33.9683 73.2889 34.0164 73.9568 33.908C74.6477 33.7958 75.2667 33.4589 75.8138 32.8972C76.3839 32.3319 76.8182 31.6586 77.1169 30.8773C77.4155 30.096 77.505 29.3368 77.3853 28.5998C77.3442 28.3464 77.2899 28.0125 77.2226 27.5979C77.1515 27.1603 77.0936 26.8033 77.0487 26.5269C76.9926 26.1815 76.9866 25.7806 77.0307 25.3243C77.071 24.8449 77.1285 24.3983 77.2031 23.9843C77.3008 23.5666 77.3882 23.3042 77.4654 23.1971C77.6234 23.006 77.7541 22.9375 77.8575 22.9916C77.9608 23.0457 77.9951 23.1111 77.9602 23.1877C77.9409 23.2144 77.8212 23.423 77.6009 23.8134C77.3769 24.1807 77.0968 24.6398 76.7608 25.1908C76.4248 25.7418 76.0887 26.2928 75.7527 26.8438C75.4167 27.3948 75.1174 27.8807 74.8548 28.3015C74.6152 28.7187 74.478 28.9655 74.4432 29.0421C74.3542 29.222 74.2561 29.2734 74.1491 29.1962C74.042 29.1191 74.0463 29.0002 74.162 28.8395C74.363 28.476 74.6123 28.0454 74.9097 27.548C75.2264 27.0238 75.545 26.5111 75.8655 26.0099C76.186 25.5087 76.4601 25.086 76.6879 24.7417C76.9349 24.3706 77.0662 24.1602 77.0818 24.1104C77.1359 24.0071 77.1673 23.8365 77.176 23.5987C77.2077 23.3571 77.2528 23.1253 77.3112 22.903C77.3927 22.677 77.5141 22.5509 77.6753 22.5248C78.0668 22.4612 78.285 22.5676 78.3299 22.844C78.3636 23.0512 78.2435 23.3308 77.9697 23.6825C77.7189 24.0306 77.5854 24.3005 77.5693 24.4922C77.5451 24.7798 77.6086 25.1713 77.76 25.6668C77.9307 26.1355 78.1126 26.6733 78.3057 27.2802C78.5218 27.8834 78.686 28.5304 78.7982 29.2214C78.9478 30.1426 78.8851 30.9211 78.6101 31.5567C78.3313 32.1693 77.9399 32.6702 77.4358 33.0594C76.9316 33.4485 76.3876 33.7378 75.8038 33.9272C75.2467 34.1358 74.7378 34.2776 74.2772 34.3524ZM79.2104 31.1046C78.6116 31.2019 78.2013 31.1503 77.9797 30.9499C77.7811 30.7458 77.6805 30.4903 77.6779 30.1834C77.6946 29.8497 77.7285 29.5487 77.7795 29.2804L78.1306 29.2589C78.0989 29.5004 78.0691 29.7534 78.0411 30.018C78.0362 30.2788 78.1063 30.492 78.2513 30.6576C78.3964 30.8231 78.7108 30.8666 79.1944 30.7881C79.5399 30.732 79.9053 30.5072 80.2905 30.1137C80.6758 29.7202 81.0383 29.2595 81.378 28.7315C81.7408 28.1998 82.0364 27.6909 82.2648 27.2046L82.615 27.396C82.3754 27.8131 82.0761 28.299 81.717 28.8538C81.381 29.4047 81.0011 29.9038 80.5772 30.3508C80.1497 30.7748 79.6941 31.0261 79.2104 31.1046ZM82.0706 33.0868C81.2645 33.2177 80.6298 33.1671 80.1666 32.935C79.7035 32.7029 79.4307 32.3335 79.3484 31.8269C79.2886 31.4583 79.3629 31.1153 79.5714 30.7978C79.7531 30.461 79.9921 30.1858 80.2883 29.9722C80.5808 29.7356 80.8192 29.6023 81.0035 29.5724C81.2568 29.5313 81.4389 29.5608 81.5497 29.661C81.6338 29.7419 81.6852 29.8399 81.7039 29.9551C81.7338 30.1394 81.6545 30.3059 81.4659 30.4547C81.2543 30.6073 81.0794 30.6948 80.9412 30.7172C80.78 30.7434 80.6343 30.7198 80.5042 30.6463C80.3473 30.5536 80.2688 30.5073 80.2688 30.5073C80.1574 30.549 80.0168 30.7019 79.8469 30.9658C79.677 31.2298 79.6145 31.5 79.6594 31.7764C79.7042 32.0527 79.897 32.2933 80.2375 32.498C80.5781 32.7028 81.0823 32.7509 81.7502 32.6424C82.4412 32.5302 83.0602 32.1933 83.6072 31.6317C84.1773 31.0664 84.6117 30.393 84.9103 29.6117C85.2089 28.8304 85.2984 28.0713 85.1787 27.3343C85.1376 27.0809 85.0833 26.7469 85.016 26.3324C84.945 25.8948 84.887 25.5378 84.8421 25.2614C84.786 24.9159 84.78 24.515 84.8241 24.0587C84.8645 23.5794 84.922 23.1328 84.9966 22.7188C85.0942 22.3011 85.1816 22.0387 85.2588 21.9316C85.4169 21.7404 85.5476 21.6719 85.6509 21.7261C85.7543 21.7802 85.7885 21.8455 85.7537 21.9221C85.7344 21.9489 85.6146 22.1575 85.3943 22.5478C85.1703 22.9151 84.8903 23.3743 84.5542 23.9253C84.2182 24.4763 83.8822 25.0272 83.5461 25.5782C83.2101 26.1292 82.9108 26.6151 82.6482 27.036C82.4086 27.4531 82.2714 27.7 82.2366 27.7766C82.1476 27.9565 82.0496 28.0079 81.9425 27.9307C81.8354 27.8535 81.8397 27.7346 81.9555 27.574C82.1565 27.2104 82.4057 26.7799 82.7031 26.2825C83.0199 25.7582 83.3385 25.2455 83.6589 24.7444C83.9794 24.2432 84.2535 23.8204 84.4813 23.4762C84.7284 23.1051 84.8597 22.8947 84.8752 22.8449C84.9293 22.7415 84.9607 22.5709 84.9694 22.3331C85.0011 22.0916 85.0462 21.8597 85.1046 21.6375C85.1861 21.4115 85.3075 21.2854 85.4687 21.2592C85.8603 21.1956 86.0785 21.302 86.1234 21.5784C86.157 21.7857 86.0369 22.0652 85.7631 22.417C85.5123 22.765 85.3788 23.0349 85.3627 23.2267C85.3385 23.5143 85.4021 23.9058 85.5534 24.4013C85.7241 24.87 85.906 25.4078 86.0991 26.0147C86.3152 26.6178 86.4794 27.2649 86.5916 27.9558C86.7412 28.8771 86.6785 29.6555 86.4035 30.2912C86.1248 30.9038 85.7333 31.4047 85.2292 31.7938C84.725 32.183 84.181 32.4723 83.5972 32.6616C83.0401 32.8703 82.5312 33.012 82.0706 33.0868ZM87.0038 29.8391C86.405 29.9363 85.9947 29.8848 85.7731 29.6844C85.5745 29.4802 85.4739 29.2247 85.4713 28.9178C85.4881 28.5842 85.5219 28.2832 85.5729 28.0149L85.924 27.9933C85.8923 28.2349 85.8625 28.4879 85.8345 28.7525C85.8296 29.0133 85.8997 29.2265 86.0448 29.392C86.1898 29.5576 86.5042 29.6011 86.9879 29.5226C87.3333 29.4665 87.6987 29.2417 88.0839 28.8482C88.4692 28.4547 88.8317 27.9939 89.1715 27.466C89.5343 26.9343 89.8298 26.4253 90.0582 25.9391L90.4084 26.1304C90.1688 26.5476 89.8695 27.0335 89.5104 27.5882C89.1744 28.1392 88.7945 28.6382 88.3707 29.0853C87.9431 29.5093 87.4875 29.7606 87.0038 29.8391ZM95.3867 21.067C96.5382 20.88 97.2038 21.3393 97.3833 22.4448C97.5217 23.297 97.468 24.204 97.2224 25.1658C96.973 26.1046 96.5741 26.9967 96.0259 27.8422C95.4739 28.6646 94.8438 29.3697 94.1355 29.9575C93.4235 30.5223 92.6644 30.8701 91.8583 31.001C91.2365 31.102 90.6939 31.0364 90.2308 30.8043C89.7408 30.553 89.4378 30.0703 89.3219 29.3563C89.2134 28.6884 89.2895 27.9196 89.5502 27.0499C89.8071 26.1572 90.2096 25.2881 90.7579 24.4426C91.3291 23.5934 92.0016 22.8578 92.7752 22.2357C93.5719 21.6099 94.4424 21.2204 95.3867 21.067ZM95.8452 21.489C95.4537 21.5526 95.0211 21.8001 94.5475 22.2316C94.0738 22.6631 93.6055 23.2001 93.1425 23.8426C92.6795 24.4851 92.2586 25.1681 91.8796 25.8915C91.52 26.5882 91.2391 27.2602 91.0369 27.9077C90.8577 28.5514 90.8018 29.0805 90.8692 29.4951C90.944 29.9557 91.123 30.2576 91.4063 30.4007C91.6858 30.5208 91.9868 30.5547 92.3092 30.5023C92.8389 30.4163 93.4022 30.1002 93.9991 29.5542C94.5922 28.9851 95.1436 28.3046 95.6532 27.5126C96.1629 26.7207 96.5518 25.9129 96.8199 25.0893C97.1073 24.2389 97.1987 23.4913 97.0939 22.8464C96.9967 22.2476 96.8276 21.8613 96.5867 21.6877C96.3457 21.5141 96.0986 21.4478 95.8452 21.489ZM97.0449 24.9464C97.1601 24.9277 97.2136 24.9663 97.2055 25.0621C97.2168 25.1312 97.1648 25.1751 97.0496 25.1938C96.9575 25.2088 96.8399 25.3579 96.6968 25.6412C96.573 25.8977 96.4625 26.1638 96.3655 26.4396C96.2684 26.7154 96.2218 26.8648 96.2255 26.8878C96.3115 27.4176 96.5503 27.6506 96.9418 27.5871C97.3103 27.5272 97.6969 27.2872 98.1014 26.8669C98.529 26.4429 98.926 25.9765 99.2926 25.4679C99.6784 24.9324 99.9814 24.4695 100.202 24.0792L100.517 24.2761C100.274 24.6702 99.9614 25.1465 99.5793 25.705C99.1934 26.2404 98.7771 26.7335 98.3302 27.1843C97.8796 27.6121 97.4355 27.8615 96.9979 27.9325C96.6294 27.9924 96.363 27.9529 96.1986 27.8141C96.0343 27.6753 95.9184 27.3987 95.8511 26.9841C95.7613 26.4313 95.8745 25.9638 96.1907 25.5815C96.5298 25.1955 96.8146 24.9838 97.0449 24.9464ZM113.725 27.4502C113.218 27.5325 112.798 27.4943 112.465 27.3356C112.132 27.1769 111.94 26.9364 111.887 26.6139C111.82 26.1994 111.906 25.7126 112.146 25.1535C112.383 24.5714 112.685 23.9551 113.052 23.3045C113.442 22.6501 113.824 22.0207 114.199 21.4162C114.593 20.7849 114.915 20.2243 115.167 19.7343C115.418 19.2443 115.522 18.8612 115.477 18.5848C115.447 18.4005 115.38 18.2813 115.277 18.2272C115.173 18.1731 115.007 18.1647 114.776 18.2021C114.431 18.2582 114 18.5173 113.484 18.9793C112.987 19.4145 112.444 19.9991 111.854 20.7332C111.283 21.4405 110.703 22.2321 110.112 23.1081C109.541 23.9573 108.997 24.8258 108.479 25.7136C107.961 26.6014 107.528 27.4282 107.18 28.1939C106.888 28.1467 106.572 28.1626 106.23 28.2418C105.888 28.3209 105.527 28.4268 105.147 28.5595C105.568 27.8055 106.047 26.9713 106.584 26.0567C107.141 25.1154 107.666 24.2027 108.161 23.3186C108.656 22.4346 109.06 21.6479 109.373 20.9588C109.683 20.2466 109.814 19.7408 109.765 19.4413C109.739 19.2801 109.653 19.1877 109.507 19.1641C109.381 19.1137 109.203 19.1072 108.972 19.1446C108.489 19.2231 107.913 19.612 107.247 20.3112C106.58 21.0104 105.894 21.8783 105.188 22.915C104.478 23.9285 103.788 24.9978 103.12 26.1228C102.471 27.2211 101.901 28.2237 101.41 29.1308C101.169 29.0991 100.887 29.1094 100.564 29.1618C100.238 29.1911 99.8539 29.3008 99.412 29.4907C100.058 28.0856 100.705 26.7515 101.351 25.4883C102.016 24.1983 102.557 23.0939 102.975 22.175C103.417 21.2523 103.615 20.6528 103.57 20.3764C103.559 20.3073 103.528 20.265 103.478 20.2495C103.448 20.2071 103.398 20.1916 103.329 20.2028C103.099 20.2402 102.812 20.5114 102.468 21.0163C102.148 21.5175 101.814 22.08 101.466 22.7038C101.118 23.3276 100.803 23.8634 100.521 24.311L100.177 24.1542C100.366 23.8634 100.588 23.4846 100.843 23.0177C101.094 22.5277 101.371 22.0455 101.672 21.5711C101.992 21.0699 102.324 20.6379 102.667 20.2749C103.01 19.9119 103.366 19.7005 103.734 19.6406C104.01 19.5957 104.254 19.6389 104.464 19.7702C104.694 19.8748 104.828 20.0422 104.865 20.2725C104.914 20.5719 104.876 20.9208 104.751 21.3193C104.623 21.6947 104.435 22.1389 104.188 22.6519C103.936 23.1418 103.646 23.6853 103.318 24.2824C103.012 24.8757 102.693 25.5303 102.36 26.2462L102.452 26.3732C102.834 25.8148 103.22 25.2084 103.61 24.554C104.023 23.896 104.45 23.2475 104.89 22.6087C105.33 21.97 105.777 21.3772 106.232 20.8306C106.687 20.2839 107.168 19.8275 107.676 19.4614C108.184 19.0953 108.703 18.8692 109.233 18.7832C109.785 18.6934 110.188 18.7699 110.44 19.0126C110.692 19.2553 110.839 19.5034 110.88 19.7567C110.94 20.1252 110.931 20.5049 110.852 20.8959C110.774 21.2868 110.659 21.6719 110.508 22.051C110.353 22.4071 110.194 22.7402 110.032 23.0502C109.866 23.3372 109.715 23.5744 109.58 23.7618C109.445 23.9492 109.37 24.0678 109.354 24.1176L109.119 23.9786C109.254 23.7912 109.462 23.4736 109.744 23.026C110.026 22.5784 110.36 22.0868 110.746 21.5514C111.151 20.9892 111.583 20.4463 112.042 19.9227C112.497 19.376 112.966 18.9215 113.451 18.5591C113.932 18.1736 114.415 17.9417 114.898 17.8631C115.474 17.7696 115.89 17.8557 116.146 18.1215C116.421 18.3605 116.578 18.5951 116.615 18.8254C116.697 19.3321 116.628 19.9226 116.406 20.5968C116.181 21.248 115.877 21.9238 115.494 22.6242C115.108 23.3015 114.716 23.9444 114.318 24.5526C113.921 25.1609 113.59 25.6755 113.328 26.0963C113.062 26.4942 112.936 26.7391 112.951 26.8313C112.984 27.0386 113.243 27.1029 113.727 27.0244C114.349 26.9234 114.939 26.6267 115.497 26.1341C116.078 25.6379 116.612 25.0666 117.098 24.4204C117.58 23.7511 118.007 23.1026 118.378 22.4751C118.768 21.8207 119.086 21.3081 119.334 20.937L119.644 21.0994C119.416 21.4437 119.095 21.9449 118.682 22.6029C118.292 23.2573 117.836 23.9459 117.316 24.6687C116.791 25.3685 116.228 25.9799 115.628 26.5029C115.027 27.026 114.393 27.3417 113.725 27.4502Z" fill="#FF0101"/>
<path d="M53.8257 61.1643C53.4572 61.2241 53.0432 61.1495 52.5837 60.9404C52.1243 60.7314 51.8422 60.3044 51.7375 59.6595C51.5729 58.6461 51.6909 57.4805 52.0916 56.1625C52.5114 54.8179 53.1137 53.4317 53.8984 52.0042C54.7061 50.5729 55.6134 49.1727 56.6203 47.8036C57.6502 46.4307 58.6873 45.1749 59.7316 44.0362C60.799 42.8936 61.7963 41.9752 62.7237 41.2809C63.6704 40.5599 64.4431 40.1507 65.0419 40.0535C65.825 39.9263 66.2689 40.1852 66.3736 40.8301C66.4297 41.1756 66.2546 41.7713 65.8483 42.6174C65.4613 43.4367 64.7553 44.4023 63.7303 45.5143C62.7053 46.6264 61.2984 47.7886 59.5096 49.0009C57.7438 50.2096 55.5006 51.3894 52.7799 52.5404C51.5194 53.076 50.2359 53.6154 48.9294 54.1585C47.646 54.6978 46.4372 55.2605 45.3031 55.8466C44.1921 56.4288 43.2516 57.0425 42.4817 57.6876C41.7349 58.3289 41.2563 59.0212 41.0461 59.7646C41.0187 59.8872 40.9571 59.9445 40.8612 59.9364C40.7884 59.9246 40.7831 59.8191 40.8453 59.6199C41.017 58.9301 41.4762 58.2646 42.2231 57.6232C42.9892 56.9551 43.926 56.3184 45.0332 55.7131C46.1636 55.104 47.3801 54.5164 48.6829 53.9503C49.9819 53.3611 51.2732 52.7969 52.5566 52.2575C54.77 51.3307 56.646 50.3642 58.1846 49.3579C59.7425 48.3249 61.0222 47.3252 62.0236 46.3588C63.025 45.3925 63.8035 44.5096 64.3592 43.7102C64.9342 42.884 65.334 42.2163 65.5587 41.7071C65.7795 41.1748 65.8806 40.851 65.8619 40.7359C65.8096 40.4134 65.5991 40.2821 65.2306 40.342C64.6779 40.4317 64.028 40.7973 63.2812 41.4386C62.5574 42.0762 61.781 42.8997 60.952 43.9089C60.1231 44.9182 59.2879 46.0348 58.4466 47.2588C57.6283 48.4791 56.8386 49.7302 56.0775 51.0121C55.3395 52.2902 54.688 53.5189 54.1231 54.698C53.5581 55.8771 53.126 56.9283 52.8268 57.8515C52.5469 58.748 52.4462 59.4381 52.5247 59.9217C52.607 60.4284 52.7726 60.7206 53.0216 60.7984C53.29 60.8494 53.5738 60.8506 53.8732 60.802C54.426 60.7122 54.97 60.4229 55.5052 59.9341C56.0367 59.4223 56.515 58.801 56.94 58.0701C57.388 57.3354 57.7383 56.5812 57.9909 55.8074C58.2397 55.0105 58.3712 54.2918 58.3854 53.6513C58.4015 53.4595 58.4728 53.3889 58.5992 53.4393C58.7449 53.4629 58.838 53.6723 58.8785 54.0676C58.9378 54.578 58.8411 55.2202 58.5885 55.994C58.3322 56.7448 57.957 57.4912 57.4629 58.2334C56.9688 58.9755 56.4118 59.6215 55.7919 60.1713C55.172 60.7211 54.5166 61.0521 53.8257 61.1643ZM39.8685 63.4307C39.0394 63.5654 38.3471 63.5241 37.7918 63.307C37.2097 63.0706 36.8719 62.6644 36.7784 62.0887C36.7298 61.7892 36.8038 61.5172 37.0005 61.2725C37.1704 61.0085 37.4396 60.8466 37.8081 60.7868C38.2687 60.712 38.5289 60.8588 38.5888 61.2273C38.6337 61.5037 38.583 61.7011 38.4367 61.8194C38.2674 61.9414 38.1252 62.0118 38.01 62.0305C37.7797 62.0679 37.6148 62.071 37.5152 62.0399C37.3925 62.0126 37.3312 61.9989 37.3312 61.9989C37.3686 62.2292 37.5324 62.5099 37.8225 62.841C38.0859 63.1528 38.6437 63.2396 39.4959 63.1012C40.4171 62.9516 41.2627 62.5542 42.0326 61.9092C42.8218 61.2373 43.5502 60.4099 44.218 59.4268C44.905 58.4169 45.5577 57.3417 46.1763 56.2012C46.8141 55.0339 47.4537 53.8781 48.0953 52.7338C48.6055 51.7999 49.16 50.847 49.7586 49.8752C50.3572 48.9033 50.9767 47.9872 51.6171 47.1268C52.2537 46.2433 52.8649 45.494 53.4505 44.8788C53.6123 44.7107 53.7586 44.5924 53.8893 44.5239C54.043 44.4517 54.1062 44.4769 54.0788 44.5995C54.067 44.6723 53.8511 44.9438 53.431 45.4139C53.034 45.8802 52.5177 46.4132 51.8823 47.0128C51.2468 47.6124 50.5675 48.16 49.8443 48.6557C49.121 49.1514 48.437 49.4516 47.7921 49.5563C47.2854 49.6386 46.8751 49.587 46.5614 49.4015C46.2706 49.2124 46.0916 48.9105 46.0242 48.4959C45.9382 47.9662 45.9901 47.485 46.1799 47.0523C46.3927 46.6159 46.6379 46.2333 46.9154 45.9046C47.216 45.5721 47.4762 45.2816 47.6958 45.0332C47.9386 44.7811 48.0431 44.5513 48.0094 44.3441C47.9571 44.0216 47.7373 43.8327 47.3501 43.7774C46.9822 43.6953 46.5564 43.6935 46.0727 43.7721C45.1745 43.9179 44.4194 44.2178 43.8076 44.6718C43.2151 45.0989 42.8068 45.4962 42.5828 45.8635C42.4671 46.0241 42.3575 46.0774 42.2542 46.0233C42.1471 45.9461 42.1321 45.854 42.2093 45.7469C42.302 45.59 42.512 45.3549 42.8394 45.0418C43.1668 44.7286 43.6015 44.4216 44.1437 44.1208C44.6821 43.797 45.3082 43.5771 46.0222 43.4612C46.2295 43.4275 46.523 43.4153 46.9027 43.4246C47.3018 43.407 47.6678 43.4776 48.0009 43.6363C48.357 43.7912 48.5762 44.122 48.6584 44.6287C48.7594 45.2506 48.7035 45.7797 48.4907 46.2161C48.2779 46.6525 48.0194 47.0255 47.715 47.3349C47.4069 47.6213 47.1278 47.8676 46.8776 48.0737C46.6274 48.2798 46.5191 48.4865 46.5528 48.6938C46.579 48.855 46.7088 48.9994 46.9423 49.1269C47.172 49.2315 47.4826 49.2519 47.8742 49.1884C48.519 49.0836 49.157 48.7909 49.7882 48.3102C50.4423 47.8258 51.07 47.2511 51.6711 46.5861C52.2954 45.9174 52.8947 45.2409 53.4691 44.5567C54.0398 43.8494 54.566 43.2321 55.0477 42.7047C55.5487 42.1506 56.0086 41.7804 56.4275 41.5942C56.5352 41.5294 56.6158 41.5163 56.6693 41.5549C56.7422 41.5667 56.6958 41.6452 56.5303 41.7903C55.9415 42.2405 55.3247 42.9552 54.68 43.9345C54.0546 44.8871 53.396 45.9987 52.704 47.2694C52.0121 48.5401 51.2834 49.8758 50.5181 51.2766C49.7757 52.6736 48.9951 54.0533 48.1762 55.4155C47.3803 56.7739 46.5446 58.0325 45.669 59.1912C44.7896 60.3268 43.8688 61.28 42.9066 62.0509C41.9407 62.7987 40.928 63.2587 39.8685 63.4307ZM73.7524 51.4041C73.6902 51.6033 73.5782 51.787 73.4164 51.9551C73.2776 52.1194 73.1659 52.2321 73.0812 52.2932C73.0159 52.3274 73.0277 52.2546 73.1167 52.0747C73.449 51.5006 73.6372 50.9855 73.6813 50.5292C73.7484 50.0691 73.6923 49.7237 73.513 49.4928C73.3529 49.2351 73.1002 49.1343 72.7547 49.1904C72.2941 49.2652 71.7827 49.5373 71.2207 50.0068C70.6587 50.4763 70.0924 51.0647 69.5217 51.772C68.974 52.4755 68.4684 53.2195 68.0048 54.004C67.5605 54.7616 67.218 55.491 66.9772 56.192C66.7328 56.8699 66.6479 57.4392 66.7227 57.8998C66.7788 58.2453 66.8834 58.4529 67.0366 58.5226C67.1897 58.5923 67.3354 58.6159 67.4736 58.5934C68.0033 58.5074 68.5744 58.1665 69.1868 57.5706C69.8185 56.948 70.4411 56.1968 71.0547 55.3171C71.6683 54.4374 72.2455 53.5517 72.7863 52.6602C73.3233 51.7456 73.7813 50.9266 74.1602 50.2032C74.5622 49.476 74.8366 48.9823 74.9834 48.7221C75.2518 48.7731 75.5568 48.759 75.8985 48.6799C76.2633 48.597 76.5705 48.5235 76.8201 48.4593C76.7852 48.5359 76.5901 48.863 76.2348 49.4408C75.9025 50.0148 75.4949 50.7074 75.0121 51.5187C74.5485 52.3031 74.0771 53.1125 73.598 53.9467C73.1419 54.7772 72.7629 55.5007 72.4611 56.117C72.1594 56.7333 72.0234 57.1336 72.0533 57.3179C72.0907 57.5482 72.1611 57.6904 72.2645 57.7446C72.3871 57.7719 72.5636 57.7669 72.7939 57.7295C73.0665 57.6616 73.449 57.4695 73.9414 57.1531C74.4299 56.8138 75.0308 56.2198 75.744 55.3711C76.4572 54.5225 77.2871 53.3004 78.2335 51.7047C78.2335 51.7047 78.2852 51.7318 78.3886 51.7859C78.5149 51.8363 78.5781 51.8615 78.5781 51.8615C77.458 53.6981 76.3855 55.1724 75.3605 56.2844C74.3317 57.3734 73.3337 57.9964 72.3663 58.1535C71.8596 58.2358 71.5011 58.2113 71.2906 58.08C71.1032 57.9449 70.9852 57.7277 70.9366 57.4283C70.8992 57.198 70.9465 56.9067 71.0783 56.5543C71.2295 56.1752 71.4056 55.8038 71.6066 55.4402C71.8076 55.0766 71.9737 54.7896 72.105 54.5792C72.105 54.5792 72.0801 54.5714 72.0303 54.5559C71.9805 54.5403 71.9556 54.5325 71.9556 54.5325C71.5306 55.2634 71.0636 55.9539 70.5545 56.6039C70.0455 57.2539 69.5177 57.7887 68.9712 58.2084C68.4478 58.6244 67.9097 58.8772 67.357 58.967C66.7812 59.0605 66.3557 58.9877 66.0805 58.7488C65.8015 58.4867 65.6134 58.0563 65.5162 57.4575C65.4227 56.8817 65.4948 56.1608 65.7324 55.2949C65.9662 54.4059 66.3651 53.5138 66.9288 52.6185C67.4889 51.7002 68.2096 50.8976 69.0909 50.2108C69.9952 49.5203 71.0577 49.0759 72.2784 48.8777C72.8772 48.7804 73.3105 48.8283 73.5782 49.0212C73.8422 49.1911 73.987 49.4276 74.0126 49.7307C74.0382 50.0339 74.0177 50.3445 73.9511 50.6626C73.8846 50.9808 73.8184 51.2279 73.7524 51.4041ZM85.1913 46.7808C85.4254 46.7664 85.7419 46.7505 86.1409 46.733C86.5593 46.6887 86.9471 46.6021 87.3043 46.4731C86.9994 46.9245 86.6077 47.4964 86.1291 48.1887C85.6468 48.858 85.1241 49.5693 84.5609 50.3226C84.0207 51.0723 83.5132 51.8047 83.0384 52.5201C82.5866 53.2317 82.2158 53.8593 81.9258 54.4028C81.6358 54.9463 81.5114 55.3447 81.5526 55.598C81.59 55.8284 81.6871 55.9899 81.844 56.0826C82.0009 56.1753 82.2521 56.1936 82.5976 56.1375C82.9661 56.0777 83.4503 55.8572 84.0503 55.4761C84.6734 55.0913 85.3275 54.6068 86.0127 54.0228C86.698 53.4387 87.3509 52.8008 87.9713 52.1091C88.5881 51.3943 89.0878 50.6868 89.4705 49.9864C89.8724 49.2592 90.069 48.5772 90.0602 47.9404C90.0619 47.5146 90.0273 47.0829 89.9562 46.6453C89.9151 46.392 89.9813 46.1448 90.155 45.9039C90.3479 45.6361 90.5595 45.4836 90.7898 45.4462C91.2965 45.3639 91.5985 45.6222 91.6957 46.221C91.7817 46.7507 91.6197 47.4271 91.2097 48.2501C90.8226 49.0694 90.2666 49.9398 89.5416 50.8613C88.8359 51.756 88.0421 52.6177 87.1602 53.4464C86.3013 54.2714 85.4334 54.9679 84.5564 55.5358C83.7025 56.0999 82.93 56.4381 82.2391 56.5503C81.8245 56.6176 81.4737 56.5682 81.1867 56.4021C80.8767 56.2397 80.6899 55.9627 80.6263 55.5712C80.5552 55.1336 80.6535 54.5739 80.921 53.8922C81.1885 53.2105 81.5541 52.4775 82.0177 51.693C82.4582 50.9123 82.9044 50.1661 83.3562 49.4545C83.831 48.7392 84.242 48.1405 84.5893 47.6587C84.9365 47.1768 85.1372 46.8841 85.1913 46.7808ZM89.2895 50.6185L89.5995 50.781C89.4028 51.0256 89.2426 51.2762 89.1188 51.5327C89.0143 51.7625 88.9826 52.004 89.0237 52.2573C89.0835 52.6258 89.3323 52.7746 89.7699 52.7035C90.1844 52.6362 90.594 52.3924 90.9985 51.9721C91.4261 51.5481 91.8328 51.0684 92.2186 50.5329C92.6044 49.9975 92.9343 49.5539 93.2081 49.2021L93.5181 49.3645C93.2518 49.7624 92.9161 50.2424 92.5109 50.8046C92.1251 51.34 91.6954 51.8235 91.2217 52.255C90.7481 52.6865 90.281 52.9396 89.8204 53.0144C89.1524 53.1229 88.7736 52.9007 88.6838 52.348C88.6315 52.0255 88.6479 51.7628 88.7332 51.5599C88.8146 51.3339 89.0001 51.0201 89.2895 50.6185ZM99.8402 53.6921C98.7577 53.8679 98.0045 53.742 97.5805 53.3145C97.1527 52.8639 96.8939 52.3622 96.8042 51.8094C96.6508 50.8651 96.7506 49.9507 97.1033 49.066C97.4523 48.1583 97.9545 47.3203 98.6098 46.552C99.2652 45.7837 99.9678 45.1614 100.718 44.685C101.487 44.1819 102.194 43.8779 102.839 43.7732C103.3 43.6984 103.679 43.7077 103.978 43.801C104.273 43.8713 104.453 44.1022 104.516 44.4937C104.576 44.8622 104.421 45.2893 104.051 45.7749C103.68 46.2605 103.193 46.7534 102.589 47.2534C101.981 47.7303 101.334 48.1899 100.65 48.632C99.9842 49.0473 99.3671 49.3958 98.7982 49.6773C98.2293 49.9588 97.8067 50.1219 97.5303 50.1668C97.5303 50.1668 97.5209 50.1092 97.5022 49.9941C97.4798 49.8559 97.4686 49.7868 97.4686 49.7868C97.6796 49.7762 98.0254 49.6491 98.5059 49.4056C99.0094 49.1584 99.5631 48.8557 100.167 48.4976C100.767 48.1165 101.338 47.7046 101.881 47.2619C102.447 46.8155 102.894 46.3647 103.221 45.9096C103.572 45.4507 103.718 45.037 103.658 44.6685C103.628 44.4843 103.545 44.3324 103.407 44.2129C103.292 44.0897 103.108 44.0486 102.855 44.0898C102.487 44.1496 102.067 44.4068 101.597 44.8613C101.147 45.2891 100.703 45.8338 100.267 46.4957C99.831 47.1575 99.4349 47.8482 99.079 48.5679C98.7231 49.2876 98.4441 49.9712 98.2419 50.6186C98.059 51.2393 97.9994 51.7454 98.0629 52.1369C98.1377 52.5975 98.332 52.9206 98.6458 53.106C98.9596 53.2915 99.3813 53.3412 99.9111 53.2551C100.832 53.1055 101.661 52.7465 102.396 52.178C103.15 51.5827 103.812 50.9314 104.383 50.2242C104.95 49.4938 105.421 48.8264 105.795 48.2219C106.166 47.5943 106.419 47.1868 106.554 46.9994C106.554 46.9994 106.594 47.0284 106.675 47.0863C106.778 47.1404 106.83 47.1675 106.83 47.1675C106.698 47.3779 106.447 47.7969 106.076 48.4244C105.706 49.052 105.227 49.7443 104.641 50.5014C104.055 51.2585 103.361 51.9384 102.561 52.5412C101.76 53.1439 100.854 53.5276 99.8402 53.6921ZM118.795 50.6142C117.574 50.8124 116.906 50.5546 116.79 49.8406C116.715 49.3799 116.784 48.8605 116.998 48.2821C117.234 47.7 117.54 47.1067 117.914 46.5022C118.285 45.8746 118.658 45.2586 119.032 44.654C119.43 44.0458 119.743 43.4985 119.971 43.0123C120.219 42.4993 120.317 42.0816 120.264 41.7592C120.246 41.644 120.173 41.5612 120.047 41.5108C119.94 41.4337 119.794 41.41 119.61 41.44C119.333 41.4848 118.964 41.6866 118.502 42.0453C118.064 42.4002 117.518 42.9733 116.867 43.7647C116.235 44.5292 115.501 45.5465 114.668 46.8166C113.83 48.0637 112.888 49.6114 111.84 51.4598C111.625 51.4474 111.311 51.4749 110.896 51.5422C110.482 51.6095 110.132 51.7136 109.848 51.8543C110.359 50.7785 110.862 49.7276 111.357 48.7017C111.852 47.6757 112.303 46.7396 112.709 45.8936C113.139 45.0438 113.475 44.3509 113.719 43.8148C113.959 43.2558 114.07 42.9187 114.051 42.8035C114.018 42.5962 113.897 42.5094 113.69 42.5431C113.46 42.5805 113.202 42.8115 112.916 43.2361C112.627 43.6377 112.32 44.1485 111.995 44.7686C111.666 45.3656 111.328 45.976 110.98 46.5999L110.636 46.4431C111.01 45.8385 111.37 45.2129 111.714 44.566C112.058 43.9192 112.426 43.351 112.82 42.8617C113.213 42.3723 113.663 42.0865 114.17 42.0042C114.423 41.9631 114.665 41.9948 114.894 42.0993C115.143 42.177 115.29 42.3541 115.335 42.6305C115.376 42.8838 115.323 43.2116 115.176 43.6138C115.048 43.9892 114.86 44.4333 114.612 44.9463C114.361 45.4363 114.073 45.9913 113.748 46.6114C113.442 47.2047 113.121 47.8478 112.785 48.5407L112.853 48.7424C113.857 47.2084 114.706 45.9594 115.4 44.9957C116.118 44.0281 116.717 43.2807 117.199 42.7533C117.7 42.1992 118.145 41.8079 118.533 41.5793C118.941 41.324 119.34 41.1646 119.732 41.101C120.262 41.015 120.66 41.0684 120.928 41.2613C121.192 41.4312 121.354 41.7004 121.414 42.0689C121.504 42.6217 121.438 43.2352 121.216 43.9094C120.991 44.5606 120.685 45.2248 120.299 45.9022C119.932 46.5528 119.547 47.1707 119.146 47.7559C118.764 48.3144 118.44 48.7926 118.173 49.1904C117.907 49.5882 117.783 49.8447 117.802 49.9599C117.824 50.0981 117.876 50.1961 117.956 50.254C118.059 50.3081 118.284 50.3071 118.629 50.251C119.481 50.1126 120.245 49.7169 120.919 49.0637C121.616 48.4068 122.259 47.6404 122.85 46.7644C123.437 45.8654 123.979 44.9854 124.478 44.1244L124.794 44.3213C124.291 45.1593 123.737 46.0412 123.131 46.967C122.525 47.8928 121.864 48.6975 121.147 49.3812C120.431 50.0648 119.647 50.4758 118.795 50.6142Z" fill="black"/>
<g clip-path="url(#clip0_4_95)">
<path fill-rule="evenodd" clip-rule="evenodd" d="M13.1249 24.8825C13.1249 21.914 15.0836 19.5075 17.4999 19.5075C19.9161 19.5075 21.8749 21.914 21.8749 24.8825V24.979L21.9429 24.9307C24.0355 23.4465 26.711 24.3273 27.9192 26.8981C29.1273 29.469 28.4105 32.7563 26.3179 34.2405L26.2499 34.2888L26.3179 34.337C28.4105 35.8213 29.1273 39.1086 27.9192 41.6794C26.711 44.2502 24.0355 45.131 21.9429 43.6468L21.8749 43.5985V43.695C21.8749 46.6636 19.9161 49.07 17.4999 49.07C15.0836 49.07 13.1249 46.6636 13.1249 43.695V43.5985L13.0569 43.6468C10.9644 45.131 8.28865 44.2502 7.08052 41.6794C5.8724 39.1086 6.58936 35.8213 8.68187 34.337L8.74988 34.2888L8.68187 34.2405C6.58936 32.7563 5.8724 29.469 7.08052 26.8981C8.28863 24.3273 10.9644 23.4465 13.0569 24.9307L13.1249 24.979V24.8825ZM21.8749 34.2888C21.8749 37.2573 19.9161 39.6638 17.4999 39.6638C15.0836 39.6638 13.1249 37.2573 13.1249 34.2888C13.1249 31.3202 15.0836 28.9138 17.4999 28.9138C19.9161 28.9138 21.8749 31.3202 21.8749 34.2888Z" fill="#FF0101"/>
<path d="M15.3125 62.5075H13.125C7.08439 62.5075 2.1875 56.4913 2.1875 49.07V46.3825H4.375C10.4156 46.3825 15.3125 52.3987 15.3125 59.82V62.5075Z" fill="#207D2A"/>
<path d="M21.875 62.5075H19.6875V59.82C19.6875 52.3987 24.5844 46.3825 30.625 46.3825H32.8125V49.07C32.8125 56.4913 27.9156 62.5075 21.875 62.5075Z" fill="#207D2A"/>
</g>
<defs>
<clipPath id="clip0_4_95">
<rect width="35" height="43" fill="white" transform="translate(0 19.5075)"/>
</clipPath>
</defs>
</svg>
